<?xml version="1.0" encoding="utf-8"?>
<!-- Generator: Adobe Illustrator 16.0.0, SVG Export Plug-In . SVG Version: 6.00 Build 0)  -->
<!DOCTYPE svg PUBLIC "-//W3C//DTD SVG 1.1//EN" "http://www.w3.org/Graphics/SVG/1.1/DTD/svg11.dtd">
<svg version="1.1" id="Layer_1" xmlns="http://www.w3.org/2000/svg" xmlns:xlink="http://www.w3.org/1999/xlink" x="0px" y="0px"
	 width="39px" height="39px" viewBox="0 0 39 39" enable-background="new 0 0 39 39" xml:space="preserve">
<path fill-rule="evenodd" clip-rule="evenodd" fill="#262626" d="M19.178,38.14c-10.53,0-19.067-8.537-19.067-19.067
	c0-10.529,8.537-19.066,19.067-19.066c10.529,0,19.065,8.537,19.065,19.066C38.243,29.603,29.707,38.14,19.178,38.14z M19.178,2.952
	c-8.904,0-16.122,7.217-16.122,16.121c0,7.255,4.79,13.39,11.38,15.413c-0.003-0.369,0.002-2.599-0.003-2.989
	c-0.036-0.021-3.779,1.098-5.392-1.603c-0.255-0.438-0.671-1.981-1.794-2.835c-0.039-0.032-0.869-0.454-0.945-0.87
	c-0.008-0.058,0.052-0.177,0.134-0.209c0.086-0.031,1.451-0.588,2.974,1.333c0.458,0.644,1.494,3.11,5.119,1.586
	c0.098-0.381,0.291-1.257,1.443-1.497c-5.4-0.642-7.865-2.688-8.629-7.283c-0.477-3.132,0.441-5.734,1.821-7.02
	c-0.21-0.273-0.9-2.561,0.171-4.98c1.16-0.231,3.289,0.599,5.158,1.939c2.639-0.949,7.59-0.702,9.36,0
	c0.844-0.695,3.851-2.313,5.143-1.937c0.378,0.961,0.925,3.287,0.17,4.987c1.679,1.721,2.154,3.942,1.852,6.675
	c-0.372,4.137-2.919,7.093-8.641,7.581c1.441,0.988,1.506,2.535,1.556,3.145c0.013,1.424-0.017,3.359,0.001,3.971
	C30.515,32.45,35.3,26.319,35.3,19.072C35.3,10.169,28.08,2.952,19.178,2.952z"/>
</svg>
